<svg id="Layer_1" data-name="Layer 1" xmlns="http://www.w3.org/2000/svg" viewBox="0 0 106.01 120.01"><path d="M100.43,41.1a4.48,4.48,0,0,0,1.1-5.11c-.52-1.58-1.78-2-3.19-2-5.18,0-10.38-.13-15.55.2-5.37.35-10.72,1.08-16.13.83l-.11.18,0-.05.14-.13A40.14,40.14,0,0,0,64,25.52c-1.26-3-1.59-6.45-4.07-8.9-.43-.23-.42-.64-.42-1-.11-2.49-1.69-4.05-3.51-5.4C53.61,8.42,52.8,8.87,52.45,12l-1,.25a13.83,13.83,0,0,0-6.12,8.66l.11.09h0l-.11-.1c-3.12,4.72-5,10.06-7.49,15.1-.63,1.29-1.35,2.07-2.85,1.83h0a15.26,15.26,0,0,0-8.68-.08h0a1.39,1.39,0,0,1-1.54-.43c-4.6-.81-9.08.15-13.49,1.16A8.89,8.89,0,0,0,5,43.24H5a2.63,2.63,0,0,0,0,3.3l.11-.09h0L5,46.54c1.68,1.79,2.76,4.13,5,5.45l.52.51h0c2.87,3.56,6.71,6.17,9.61,9.63,2.14,2.55,7,4.24,4.08,9.18-.08.12,0,.35,0,.53l.08.17-.14.14c-1,0-.88.52-.56,1.15a1.1,1.1,0,0,0-1.07.62c-2.88,5.76-5.92,11.44-8.61,17.29-.95,2.07-2.55,4-2.41,6.52l.13.08h0l-.08-.08c-1.31.18-1,1.52-1.59,2.21l.13.14h0l-.12-.15c-2.6,2.27-2.82,5.74-4.26,8.59-.44.87.35,1.67,1.43,1.8.75.87,1.5.37,2.24,0,3.26-.29,6-2,8.44-3.84C26,100.22,34.05,93.81,42.1,87.36c1.55-1.25,2.35-1,3.46.48,2.46,3.21,5.41,6,8.15,9,1.68,1.82,4,2.92,5.36,4.8,3.64,5.13,8.43,9,12.89,13.31,3.11,3,6,2.16,9.17.3,2.32-1.36,1.27-3.44,1.19-5.1-.12-2.37-.21-4.93-2-6.88,0-.51-.07-1-.1-1.52,1.3-2.38-.41-4.54-.58-6.82a72,72,0,0,0-3.16-15.11.28.28,0,0,1-.12-.37h0c-.15-1.24-.32-2.48-.45-3.72a29.85,29.85,0,0,0-2.68-10.62h0c0-.31-.08-.62-.13-.93,2.64-3.26,6.3-5.31,9.55-7.79C88.28,52,94.17,48,99.33,43.1c.63-.6,1.2-1.07,1.1-2ZM39.94,37.29h0l-.26.26c0-.06,0-.13,0-.2Zm16.86-6s0,0-.06,0l.15,0A.13.13,0,0,1,56.8,31.29Zm-1.14-11.1a.43.43,0,0,1,.05-.47A2.42,2.42,0,0,1,55.66,20.19ZM30.1,58.53h0ZM32,61.47c-.2.21-.41.42-.51.38h0A5.28,5.28,0,0,1,32,61.47Zm-.63,29.29.07,0-.08.06S31.36,90.79,31.36,90.76Zm20.48-6.92,0,.09-.1-.05Zm15.74-40h0Zm.13-.1,0,0-.37-.14.4,0Zm4.54,58.69,0,0v0ZM69.37,42.7a0,0,0,0,1,0,0l0,0h0l0,0h0Zm-1.5,60.06c.17.56.4,1.34.6,2C67.63,104.29,67.46,103.79,67.87,102.76ZM14.26,40.08a.14.14,0,0,0,0,.06h0l0-.06Zm3,61.93-.06.17-.15,0C17.15,102.1,17.22,102.07,17.29,102ZM76.46,90.7v0h0v0h.08A.32.32,0,0,0,76.46,90.7Zm-.56-1.63h0Zm-39.32-48V41h.06ZM11.61,100h0l.21.1ZM77,90.71h0ZM24.08,75.42h0v0Zm50.65,3.83a1.64,1.64,0,0,1-.42-.29l.44.06ZM100.34,41h0l.09.07-.11-.05ZM5,43.28H5l-.06,0Z"/></svg>