<svg id="Layer_1" data-name="Layer 1" xmlns="http://www.w3.org/2000/svg" viewBox="0 0 103.01 119.01"><path d="M95.76,40h0c1-3.23.19-4.42-3-3.71a32.35,32.35,0,0,1-6.42.43,46.15,46.15,0,0,0-9.29,1.18l-.78,0c-2.79-.52-5.48.84-8.26.4l-.05.08h0l0,0,.07,0c-.15-2.5.14-5.12-1.69-7.17a1.32,1.32,0,0,0-.28-.3l0,0h0l-.8-.61c-.27-.71.07-1.56-.54-2.19.08-.73.5-1.47,0-2.19a1.42,1.42,0,0,0,0-.46A9.55,9.55,0,0,0,62,19.62a.92.92,0,0,0-.28-.29h0L59.79,16c-.56-.89-1.12-1.77-1.67-2.66-.76-1.54-1.74-1.34-2.73-.28-.68.71-1.12,1.72-1.91,2.21C49.11,18,48,22.68,46.13,26.9h0a42.07,42.07,0,0,0-5.46,10.33,3.5,3.5,0,0,1-3.06,2.59c-1.86.12-3.45,1-5.13,1.57a13.16,13.16,0,0,1-6.88.46,25.6,25.6,0,0,0-6.94,0c-1,.11-2.81,0-2.45,2,.27,1.12-1,.45-1.17,1-1.95.32-3.06,1.16-2,3.31l.42.56c2.37,3.73,6,5.9,9.68,8.13.86,1.16,2.61,1,3.4,2.22A11.67,11.67,0,0,0,28.45,61c2.87,1.71,4,3.78,1.92,6.88-.33.5-.59,1-1,1.55a9.79,9.79,0,0,0-2.37,6h0c-1.62.47-1.9,1.82-2.13,3.22-2.19,1.88-2.08,4.71-2.91,7.15h0c-3,3.45-4,7.79-5.3,12h0c-1.91,1.08-2.19,3-2.7,4.9h0l-.57,1.11c-1.61,1.53-1.92,3.58-2.14,5.63-.12,1.14.36,1.94,1.66,2,1.53.92,2.9.92,4-.48a1.4,1.4,0,0,0,.23-.29h0l1.48-.9a1.65,1.65,0,0,0,1.51-.44c4.63-5.1,10.87-8.16,15.92-12.7,3.07-2.77,7.16-4.31,9.49-8h0c.37-.4.74-.79,1.12-1.18h0c1.93-.65,3.26-2.17,4.73-3.45,1.32-1.16,2.33-1.17,3.39.18l1.11.56c.28.77,1,1,1.63,1.32h0a4.52,4.52,0,0,0,2.18,2.51h0a5.38,5.38,0,0,0,2.69,2.17c2.13,1.87,3.46,4.69,6.52,5.43L68.82,96a1.39,1.39,0,0,1,.15.19l1.7,1.15c.21,1.26,1.22,1.4,2.2,1.58l1.61,1c2,2.57,4.82,3.61,7.82,4.34a1.77,1.77,0,0,0,2-1h0c2-.07,3-.9,2.6-3h0l0-.73A6.75,6.75,0,0,0,85.67,93a.72.72,0,0,0-.54-.63h0c-.3-1.41-.61-2.81-.91-4.21A23.28,23.28,0,0,0,81,78.69h0l-.13-.12.08-.16A2.76,2.76,0,0,0,80,76l-.14-.14,0-.19a26.57,26.57,0,0,0-3.17-9.48,4.22,4.22,0,0,1-1.17-3.25c4.5-2.15,7.34-6.07,10.41-9.75l1.45-1.77.64-.53c3.88-1.76,5.78-5.35,8-8.67A1.56,1.56,0,0,0,95.76,40ZM54.34,18.76h0l-.05.07,0-.06.06,0ZM31.78,75.58l.09,0-.21,0,.06-.1S31.75,75.58,31.78,75.58Zm4.56-24.8,0,0-.1.11h0ZM82.54,93a.9.9,0,0,1,0-.16h.16A1.83,1.83,0,0,0,82.54,93Zm-8.4-51.18h0l0,0A.06.06,0,0,0,74.14,41.85Zm-16-20.46v.1l.51,1.13c.21.7.41,1.4.62,2.09a30,30,0,0,0,2.1,6,8.57,8.57,0,0,0,1.2,4,3.41,3.41,0,0,0-.1,1.11,64,64,0,0,0,2,7.58c.65,2.42,1.33,2.7,4,2.09.4-.22.81-.43,1.22-.62a66.52,66.52,0,0,0,10.83-.63h.7a3.27,3.27,0,0,0,1.39,0h0A4.81,4.81,0,0,0,84.38,44l.34,0a6.11,6.11,0,0,1,.75,0,1,1,0,0,1,.5.53c.48,1-1.19,2-1.69,3.08a.54.54,0,0,0-.38.4l-.44.11c-.92.73-1.58,1.72-2.54,2.42-4.34,3.19-7.52,7.52-11,11.52-.7.79-1.36,1.84.15,2.63h0c.74,2.13,1.14,4.39,2.26,6.39h0l.6,3.11h0c.69,4.49,1,9.11,4.28,12.71L78.08,88h0c.14.56,0,1.23.62,1.62q.8,2.55,1.58,5.1a4.43,4.43,0,0,0,.14.44v1.38c-1.26.3-2.21-.42-3.21-1L74.38,93c-1-2.19-3.07-3.17-4.88-4.45h0c-3.37-3.66-6.69-7.36-10.11-11a6.83,6.83,0,0,1-2-4c-1.29-9.81-1-19.72-1.9-29.55-.59-6.61.45-13.22-.14-19.82,0-1.26,0-2.52.07-3.78l1.09-1c.06.14.11.29.18.43C57.13,20.4,57,21.61,58.11,21.39ZM63.67,28l0-.13h.08Zm-17.42-1,0,0-.09-.07Zm-19,48.61h0L27,75.42ZM16.8,97.85h0l-.1-.08Zm-1.6,13.22s0,0,0-.07l0,0ZM57.65,85.69h.05s0,.09-.05.13A.33.33,0,0,0,57.65,85.69Zm9.17,7.74.11,0s0,0,0,.08Zm12.56,8.16,0,0a0,0,0,0,0,0,0ZM75.79,73.45a2.87,2.87,0,0,0-.24.35h0l-.09-.18C75.58,73.45,75.69,73.4,75.79,73.45ZM95.58,40l.18,0-.15.11Z"/></svg>