<svg enable-background="new 0 0 228.01 44.99" viewBox="0 0 228.01 44.99" xmlns="http://www.w3.org/2000/svg"><path d="m8.18 6.43c.89-.38 2.29-1.14 2.71-1.14.25 0 .64.3.64.76 0 1.53-.04-.21-.04 13.87 0 1.1.08 1.53.3 1.53.68 0 .68-2.84 6.7-2.84 5.34 0 7.97 4.5 7.97 8.78 0 2.25-1.23 6.57-3.86 8.57-1.57 1.19-3.52 1.87-5.89 1.87-3.94 0-5.94-2.46-6.23-2.46-.47 0-1.02 2.71-2.08 2.71-.42 0-.51-.17-.51-.55 0-1.02.17-3.22.17-3.48 0-3.22.38-6.4.38-11.2v-10.48c0-1.82-.34-3.86-1.91-3.86h-.42c-.34 0-.68-.09-.68-.47 0-.89 1.95-1.27 2.75-1.61m9.5 29.85c4.11 0 6.02-3.26 6.02-6.79 0-4.11-2.63-8.61-7.46-8.61-1.23 0-2.5.42-3.39 1.19-1.23 1.02-1.36 1.48-1.36 1.99v7.68c0 .98 1.87 4.54 6.19 4.54"/><path d="m43.04 6.47c1.1-.42 2.37-1.19 3.22-1.19.42 0 .51.38.51.81 0 .64-.34 2.59-.34 6.45v2.37c0 3.6-.08 3.52-.08 5.64v12.64c0 1.36.21 3.1 3.43 3.1.3 0 .55.34.55.64 0 .47-.51.59-1.31.59-.89 0-2.97-.3-4.28-.3-1.95 0-2.5.34-3.43.34-.47 0-.68-.3-.68-.42 0-.76.81-.64 1.44-.93 1.02-.47 1.14-1.27 1.14-2.76 0-.34-.04-.68-.04-1.1v-3.15c0-3.6.17-12.64.17-18.02 0-1.31-.51-2.5-1.02-2.71-.3-.13-.85-.17-1.7-.17-.25 0-.47-.04-.47-.34 0-.81.51-.55 2.89-1.49"/><path d="m66.18 19.7c.55 0 2.16-.21 2.42-.21.98 0 .98.13.98 2.12 0 2.25-.21 3.01-.21 7.46 0 5.6 2.84 6.83 4.71 6.83 3.52 0 5.17-1.23 5.17-5.17l-.09-5.85c0-2.63-.13-3.56-1.95-3.73-.47-.04-.93-.21-.93-.55 0-.59.85-.98 3.73-.98.64 0 1.14-.21 1.53-.21.89 0 1.02.21 1.02 1.19 0 .25-.21 5.05-.21 10.81 0 3.39.25 4.45 1.19 4.45.38 0 .76-.04 1.1-.04.59 0 1.02.13 1.02.55 0 .68-.38.72-1.57.72-1.27 0-3.86.47-4.28.47-.55 0-.51-2.16-.76-2.16-.34 0-2.29 2.71-6.11 2.71-4.24 0-6.83-2.21-6.83-7.38 0-6.87.04-6.11.04-7.63 0-1.27-.85-1.87-1.27-1.87h-.78c-.47 0-.76-.13-.76-.59 0-.55.38-.94 2.84-.94"/><path d="m100.78 6.43c.89-.38 2.29-1.14 2.71-1.14.25 0 .64.3.64.76 0 1.53-.04-.21-.04 13.87 0 1.1.08 1.53.3 1.53.68 0 .68-2.84 6.7-2.84 5.34 0 7.97 4.5 7.97 8.78 0 2.25-1.23 6.57-3.86 8.57-1.57 1.19-3.52 1.87-5.89 1.87-3.94 0-5.94-2.46-6.23-2.46-.47 0-1.02 2.71-2.08 2.71-.42 0-.51-.17-.51-.55 0-1.02.17-3.22.17-3.48 0-3.22.38-6.4.38-11.2v-10.48c0-1.82-.34-3.86-1.91-3.86h-.43c-.34 0-.68-.09-.68-.47 0-.89 1.95-1.27 2.76-1.61m9.5 29.85c4.11 0 6.02-3.26 6.02-6.79 0-4.11-2.63-8.61-7.46-8.61-1.23 0-2.5.42-3.39 1.19-1.23 1.02-1.36 1.48-1.36 1.99v7.68c0 .98 1.86 4.54 6.19 4.54"/><path d="m143.77 19.07c4.96 0 9.88 3.22 9.88 9.41 0 6.36-5.09 9.63-10.18 9.63-6.49 0-9.71-4.66-9.71-9.37 0-4.8 3.35-9.67 10.01-9.67m.98 17.77c3.01 0 5.72-2.29 5.72-7.08 0-4.49-2.5-9.54-7.72-9.54-2.46 0-5.64 1.82-5.64 7.08 0 6.19 4.03 9.54 7.64 9.54"/><path d="m170.27 6.39c1.14-.51 2.54-1.19 3.05-1.19s.55.68.55.98c0 .59-.3 1.19-.3 2.63-.13 11.24-.3 11.24-.3 12.47 0 .51.08.81.34.81.42 0 2.46-3.14 5.98-3.14 4.37 0 7.25 2.46 7.25 8.35v6.15c0 .64.21 2.33 1.4 2.46 1.27.13 2.29.38 2.29.89 0 .55-.64.68-1.31.68-.51 0-2.67-.21-3.56-.21-.68 0-2.93.13-3.26.13-.55 0-.98-.08-.98-.42 0-1.4 2.29.21 2.29-2.67 0-.72.08 0 .08-7.04 0-3.48-2.46-6.36-5.26-6.36-1.61 0-3.14.89-4.11 1.65-1.02.81-1.19 1.65-1.19 7.85v.98c0 2.04.13 4.03 1.7 4.71.89.38 2.16 0 2.16.76 0 .25-.21.51-.47.51-.04 0-4.33-.21-4.54-.21-.59 0-2.37.21-3.01.21-1.19 0-1.14-.17-1.14-.42 0-.21.04-.42.51-.55 1.74-.51 1.95-1.57 1.95-3.27l.17-14.46v-2.08c0-7.42 0-8.31-1.78-8.31-.64 0-.59-.04-.72-.04-.47 0-.72-.17-.72-.42 0-.84 1.78-.92 2.93-1.43"/><path d="m214.02 19.07c4.96 0 9.88 3.22 9.88 9.41 0 6.36-5.09 9.63-10.18 9.63-6.49 0-9.71-4.66-9.71-9.37.01-4.8 3.36-9.67 10.01-9.67m.98 17.77c3.01 0 5.72-2.29 5.72-7.08 0-4.49-2.5-9.54-7.72-9.54-2.46 0-5.64 1.82-5.64 7.08.01 6.19 4.04 9.54 7.64 9.54"/></svg>