<?xml version="1.0" encoding="utf-8"?>
<!-- Generator: Adobe Illustrator 25.3.0, SVG Export Plug-In . SVG Version: 6.00 Build 0)  -->
<svg version="1.1" id="Layer_1" xmlns="http://www.w3.org/2000/svg" xmlns:xlink="http://www.w3.org/1999/xlink" x="0px" y="0px"
	 viewBox="0 0 204.62 58.44" style="enable-background:new 0 0 204.62 58.44;" xml:space="preserve">
<g>
	<path d="M6.78,8.96c0,2.22,0,4.43,0,6.65c0,0.22-0.07,0.51,0.21,0.6c0.28,0.09,0.3-0.24,0.4-0.38c1.09-1.55,2.71-1.94,4.45-2.08
		c1.36-0.11,2.7-0.11,4.01,0.38c2.49,0.91,3.83,2.82,4.49,5.24c0.72,2.62,0.19,5.13-0.95,7.53c-1.26,2.66-3.37,4.15-6.28,4.6
		c-2.24,0.35-4.29-0.03-6.18-1.26c-0.21-0.14-0.45-0.25-0.6-0.43c-0.57-0.68-0.76-0.23-1,0.28c-0.27,0.57-0.5,1.17-1.02,1.6
		c-0.22,0.18-0.41,0.26-0.68,0.17c-0.31-0.1-0.31-0.33-0.31-0.6c-0.03-1.89,0.05-3.78,0.18-5.65c0.43-6.26,0.14-12.53,0.23-18.79
		c0.01-0.52-0.15-1.03-0.4-1.49C3.02,4.8,2.59,4.41,1.89,4.47C1.52,4.5,1.07,4.52,0.99,4.06c-0.07-0.4,0.23-0.69,0.62-0.88
		c1.01-0.5,2.13-0.77,3.12-1.33c0.31-0.18,0.66-0.3,1-0.42C6.37,1.2,6.77,1.48,6.77,2.17C6.78,4.44,6.78,6.7,6.78,8.96z M6.78,22.26
		c0,0.95,0.07,1.9-0.02,2.84c-0.12,1.34,0.48,2.37,1.36,3.22c1.57,1.51,3.47,2.12,5.63,1.63c1.53-0.34,2.7-1.23,3.4-2.67
		c0.64-1.33,0.89-2.71,0.74-4.2c-0.23-2.35-1.1-4.33-2.96-5.81c-1.93-1.52-4.65-1.87-6.76-0.32c-0.87,0.64-1.58,1.34-1.42,2.61
		C6.87,20.44,6.78,21.36,6.78,22.26z"/>
	<path d="M92.81,16.25c0.42-0.1,0.5-0.49,0.71-0.74c0.97-1.13,2.28-1.56,3.67-1.71c1.32-0.14,2.67-0.21,3.98,0.17
		c1.86,0.54,3.26,1.65,4.19,3.35c0.65,1.19,1.01,2.44,1.1,3.81c0.18,2.84-0.66,5.36-2.33,7.59c-1.19,1.59-2.92,2.43-4.86,2.77
		c-1.78,0.32-3.53,0.22-5.21-0.54c-0.73-0.33-1.39-0.75-2.01-1.25c-0.34-0.28-0.56-0.35-0.75,0.19c-0.19,0.53-0.52,1-0.81,1.49
		c-0.21,0.36-0.54,0.61-0.96,0.51c-0.46-0.1-0.44-0.53-0.42-0.9c0.15-2.24,0.14-4.5,0.31-6.73c0.29-3.91,0.22-7.82,0.24-11.72
		c0.01-1.69,0.01-3.37,0-5.06c-0.01-0.7-0.13-1.4-0.41-2.05c-0.28-0.64-0.73-1.03-1.49-0.97c-0.33,0.03-0.73,0.08-0.85-0.35
		c-0.11-0.4,0.12-0.69,0.47-0.88c0.16-0.09,0.3-0.22,0.47-0.27c1.28-0.4,2.47-0.99,3.7-1.5c0.7-0.29,1.17,0.02,1.15,0.78
		c-0.02,0.91,0.07,1.83-0.1,2.75c-0.13,0.69-0.03,1.43-0.03,2.14c0,2.31,0,4.62,0,6.93C92.58,14.78,92.53,15.51,92.81,16.25z
		 M92.58,22.34c0,0.99,0.02,1.99-0.01,2.98c-0.01,0.52,0.11,0.98,0.33,1.44c0.92,1.98,3.4,3.74,6.32,3.25
		c1.73-0.29,2.97-1.14,3.77-2.68c0.8-1.53,0.99-3.13,0.7-4.82c-0.4-2.37-1.4-4.34-3.5-5.64c-2.15-1.33-4.99-1.29-6.92,0.72
		c-0.46,0.48-0.72,1.02-0.7,1.71C92.6,20.3,92.58,21.32,92.58,22.34z"/>
	<path d="M169.37,23.79c0,1.39,0,2.49,0,3.6c0,0.23,0.01,0.45,0.07,0.68c0.44,1.81,0.64,1.52,2.11,1.77
		c0.77,0.13,1.37,0.48,1.27,0.89c-0.18,0.73-0.89,0.68-1.34,0.61c-0.98-0.16-1.96-0.08-2.93-0.21c-1.11-0.14-2.24,0.21-3.36,0.09
		c-0.34-0.03-0.85,0.25-0.93-0.39c-0.07-0.56,0.31-0.64,0.75-0.75c1.02-0.25,1.31-0.69,1.32-1.76c0.02-2.09,0.23-4.18,0.13-6.28
		c-0.07-1.35-0.32-2.66-1.13-3.79c-1.8-2.54-4.03-2.9-6.7-1.34c-1.31,0.77-1.67,1.85-1.78,3.27c-0.16,2.12-0.05,4.23-0.1,6.35
		c-0.02,0.75,0.13,1.5,0.42,2.18c0.45,1.05,1.36,1.4,2.43,1.4c0.39,0,0.72,0.09,0.73,0.53c0.01,0.49-0.33,0.6-0.75,0.58
		c-0.25-0.01-0.51,0.01-0.76-0.02c-1.7-0.19-3.4-0.22-5.1-0.01c-0.45,0.06-0.92,0.02-1.38,0.02c-0.26,0-0.51-0.06-0.57-0.36
		c-0.07-0.34,0.07-0.65,0.39-0.72c1.61-0.35,1.84-1.54,1.83-2.9c-0.01-1.62-0.07-3.24,0.01-4.85c0.26-5.07,0.05-10.15,0.12-15.22
		c0.01-0.73-0.15-1.45-0.3-2.15c-0.12-0.56-0.62-0.75-1.13-0.82c-0.27-0.04-0.55,0-0.83-0.01c-0.27-0.01-0.58,0.07-0.64-0.33
		c-0.06-0.36,0.07-0.64,0.43-0.77c0.38-0.14,0.76-0.28,1.15-0.38c1.15-0.29,2.18-0.88,3.27-1.3c0.74-0.29,1.37-0.06,1.24,0.78
		c-0.46,2.99-0.17,6.02-0.32,9.02c-0.06,1.12-0.04,2.25-0.11,3.37c-0.03,0.55-0.09,1.09-0.13,1.64c-0.02,0.24,0.06,0.47,0.28,0.57
		c0.23,0.11,0.37-0.13,0.51-0.28c1.08-1.16,2.3-2.1,3.89-2.36c3.57-0.6,6.83,0.89,7.68,4.91C169.47,20.73,169.29,22.4,169.37,23.79z
		"/>
	<path d="M69.43,22.19c-0.02-1.29,0.05-2.88-0.13-4.46c-0.1-0.92-0.59-1.39-1.87-1.6c-0.37-0.06-0.75-0.08-0.74-0.51
		c0-0.43,0.33-0.67,0.76-0.74c0.81-0.14,1.62-0.3,2.43-0.27c0.58,0.02,1.13-0.13,1.7-0.16c0.89-0.05,1.05,0.18,1.04,1.01
		c-0.04,3.87-0.23,7.74-0.16,11.61c0.01,0.53,0.11,1.05,0.19,1.56c0.15,0.91,0.42,1.07,1.34,1.07c0.32,0,0.65-0.01,0.97,0
		c0.39,0.02,0.57,0.25,0.56,0.63c0,0.35-0.18,0.6-0.53,0.59c-1.47-0.02-2.9,0.25-4.35,0.41c-0.89,0.1-1.09-0.16-1.22-1.28
		c-0.02-0.17,0.11-0.4-0.12-0.49c-0.25-0.1-0.37,0.13-0.51,0.26c-2.45,2.32-6.09,2.79-9.01,1.09c-1.28-0.75-1.94-2.01-2.27-3.43
		c-0.21-0.91-0.3-1.84-0.29-2.78c0.02-1.89,0.01-3.79,0-5.68c0-0.51,0.12-1.01,0.01-1.53c-0.18-0.87-0.6-1.24-1.49-1.27
		c-0.39-0.01-0.94,0.18-1-0.48c-0.06-0.64,0.34-0.81,0.93-0.92c1.06-0.19,2.14-0.06,3.2-0.23c0.42-0.07,0.86-0.32,1.33-0.04
		c0.2,0.12,0.35,0.2,0.34,0.44c-0.07,1.77,0.01,3.54-0.09,5.31c-0.12,2.18-0.3,4.4,0.51,6.52c0.96,2.53,2.71,3.09,5.04,2.82
		c0.78-0.09,1.56-0.33,2.17-0.87c0.9-0.78,1.19-1.86,1.24-2.99C69.47,24.7,69.43,23.59,69.43,22.19z"/>
	<path d="M194.52,14.18c2.08-0.14,3.95,0.48,5.66,1.62c1.99,1.34,3.07,3.23,3.45,5.59c0.32,2.05,0.08,4.01-0.87,5.82
		c-1.28,2.44-3.4,3.83-6.07,4.42c-2.12,0.48-4.19,0.38-6.23-0.41c-2.99-1.15-4.58-3.4-5.15-6.48c-0.38-2.06-0.09-4.04,0.85-5.89
		c1.33-2.6,3.48-4.09,6.37-4.57C193.2,14.19,193.86,14.22,194.52,14.18z M195.43,30.56c2.08,0.05,3.48-1.04,4.39-2.75
		c0.82-1.53,0.98-3.21,0.76-4.96c-0.27-2.13-0.99-4.05-2.46-5.62c-1.01-1.08-2.3-1.67-3.83-1.87c-1.77-0.23-3.21,0.36-4.33,1.6
		c-1.28,1.41-1.64,3.24-1.59,5.08c0.05,1.72,0.41,3.41,1.32,4.94C191.01,29.17,192.86,30.44,195.43,30.56z"/>
	<path d="M129.44,31.94c-2.89-0.05-5.23-0.7-7.06-2.6c-1.23-1.29-1.96-2.84-2.23-4.63c-0.41-2.7,0.15-5.13,1.81-7.31
		c1.27-1.67,3-2.67,5.01-3.04c1.95-0.36,3.94-0.38,5.87,0.34c3.17,1.18,5.13,3.34,5.63,6.75c0.36,2.46-0.03,4.74-1.51,6.79
		c-1.33,1.84-3.17,2.89-5.34,3.39C130.8,31.82,129.97,32.01,129.44,31.94z M129.28,30.52c3.05,0.08,4.5-0.97,5.41-2.72
		c0.79-1.52,0.96-3.16,0.75-4.89c-0.25-2.09-0.94-3.97-2.33-5.53c-1.03-1.16-2.37-1.81-3.98-2c-1.76-0.21-3.21,0.35-4.32,1.61
		c-1.19,1.34-1.6,3.05-1.58,4.8c0.03,1.82,0.37,3.6,1.34,5.21C125.86,29.16,127.69,30.42,129.28,30.52z"/>
	<path d="M41.3,31.36c-1.3-0.04-2.59-0.27-3.89-0.29c-1.04-0.02-2.03,0.35-3.06,0.29c-0.29-0.02-0.64,0.08-0.67-0.38
		c-0.03-0.4,0.12-0.63,0.54-0.73c1.36-0.33,1.81-0.94,1.81-2.31c0-1.99,0.03-3.97-0.01-5.96c-0.08-5,0.22-10,0.15-15
		c-0.01-0.61-0.11-1.18-0.33-1.72c-0.22-0.57-0.6-1.03-1.34-0.93c-0.29,0.04-0.6,0.02-0.89-0.03c-0.23-0.04-0.4-0.18-0.37-0.48
		c0.03-0.23-0.03-0.5,0.27-0.57c1.77-0.41,3.34-1.37,5.08-1.85c0.56-0.15,0.85,0.06,0.89,0.64c0.05,0.76-0.09,1.51-0.17,2.25
		c-0.11,0.97-0.07,1.93-0.1,2.89c-0.18,6.62-0.13,13.24-0.15,19.85c0,2.4,1,2.87,2.86,3.07c0.47,0.05,0.87,0.12,0.86,0.63
		c0,0.57-0.5,0.6-0.94,0.63C41.67,31.37,41.48,31.36,41.3,31.36z"/>
	<path d="M124.3,50.58c-0.56,1.47-1.1,2.87-1.64,4.27c-0.08,0.2-0.08,0.48-0.38,0.48c-0.32,0-0.29-0.31-0.36-0.51
		c-0.68-1.86-1.36-3.73-2.04-5.62c0.55-0.23,0.81-0.08,0.98,0.48c0.44,1.35,0.94,2.68,1.45,4.11c0.55-1.42,1.07-2.76,1.59-4.11
		c0.06-0.15,0.1-0.3,0.15-0.45c0.06-0.16,0.17-0.27,0.36-0.26c0.21,0.01,0.15,0.18,0.2,0.3c0.57,1.45,1.14,2.89,1.76,4.45
		c0.21-0.55,0.41-1.04,0.59-1.53c0.33-0.89,0.68-1.77,0.94-2.68c0.12-0.41,0.36-0.47,0.66-0.39c0.47,0.12,0.1,0.43,0.04,0.6
		c-0.59,1.73-1.21,3.45-1.84,5.16c-0.07,0.19-0.13,0.47-0.44,0.45c-0.29-0.01-0.2-0.28-0.26-0.42c-0.5-1.23-0.98-2.47-1.44-3.72
		C124.54,50.99,124.49,50.79,124.3,50.58z"/>
	<path d="M153.39,55.14c-0.57,0.1-0.91,0.12-1.18-0.36c-0.33-0.59-0.8-1.1-1.2-1.64c-0.29-0.4-0.63-0.65-1.18-0.58
		c-0.33,0.04-0.43,0.13-0.42,0.45c0.02,0.6-0.01,1.2,0.01,1.8c0.01,0.29-0.09,0.4-0.39,0.4c-0.32,0-0.45-0.07-0.45-0.42
		c0.02-1.75,0.02-3.51,0-5.26c0-0.35,0.13-0.43,0.45-0.42c0.69,0.02,1.39-0.01,2.08,0.01c0.65,0.02,1.37,0.58,1.49,1.12
		c0.21,0.95-0.02,1.68-0.7,2.05c-0.37,0.2-0.45,0.29-0.13,0.66C152.33,53.61,152.81,54.35,153.39,55.14z M149.41,50.85
		c0,1.03,0,1.03,0.85,1.03c1.15,0,1.66-0.32,1.65-1.05c-0.01-0.7-0.5-1.03-1.53-1.03C149.41,49.8,149.41,49.8,149.41,50.85z"/>
	<path d="M91.2,52.13c0-0.85,0-1.7,0-2.56c0-0.23-0.04-0.49,0.33-0.46c0.86,0.07,1.72-0.07,2.6,0.11c1.37,0.29,2.41,1.67,2.18,3.31
		c-0.21,1.53-1.12,2.51-2.84,2.67c-0.57,0.05-1.15-0.02-1.73,0.02c-0.41,0.02-0.57-0.09-0.55-0.53
		C91.22,53.83,91.2,52.98,91.2,52.13z M91.88,52.14c0,0.35,0,0.69,0,1.04c0,1.35,0,1.39,1.32,1.33c1.97-0.09,2.8-1.82,2.07-3.45
		c-0.47-1.05-2.16-1.65-3.21-1.24c-0.26,0.1-0.17,0.3-0.17,0.46C91.88,50.89,91.88,51.52,91.88,52.14z"/>
	<path d="M74.42,50.77c0,1.38,0,2.64,0,3.91c0,0.23,0.11,0.52-0.33,0.53c-0.42,0.01-0.36-0.26-0.36-0.5c0-1.76,0-3.51,0.01-5.27
		c0-0.16-0.12-0.4,0.16-0.46c0.21-0.04,0.29,0.13,0.4,0.29c1,1.32,2.02,2.62,3.04,3.93c0.08,0.1,0.19,0.18,0.41,0.38
		c0-1.26,0-2.4,0-3.54c0-0.18,0.01-0.37,0-0.55c-0.01-0.24,0.03-0.39,0.33-0.39c0.27,0,0.36,0.1,0.36,0.36
		c-0.01,1.85,0,3.7-0.01,5.54c0,0.13,0.04,0.29-0.16,0.32c-0.19,0.03-0.28-0.09-0.38-0.23c-1.07-1.38-2.14-2.76-3.21-4.14
		C74.64,50.92,74.58,50.89,74.42,50.77z"/>
	<path d="M48.6,55.15c-0.48,0.12-0.83,0.07-1.12-0.44c-0.36-0.62-0.87-1.16-1.28-1.75c-0.36-0.52-0.88-0.39-1.37-0.38
		c-0.28,0.01-0.2,0.26-0.2,0.43c-0.01,0.6-0.01,1.2,0,1.8c0,0.22-0.01,0.39-0.32,0.4c-0.33,0.01-0.38-0.15-0.37-0.42
		c0.01-1.75,0.01-3.5,0-5.25c0-0.33,0.1-0.44,0.43-0.43c0.71,0.02,1.43-0.01,2.14,0.01c0.61,0.02,1.31,0.58,1.43,1.1
		c0.22,0.9-0.01,1.72-0.67,2.06c-0.43,0.22-0.45,0.32-0.13,0.7c0.54,0.63,0.99,1.35,1.47,2.03C48.62,55.03,48.6,55.09,48.6,55.15z
		 M45.68,51.88c0.16,0,0.32,0.01,0.48,0c0.64-0.03,1.1-0.48,1.09-1.06c-0.01-0.58-0.47-1-1.13-1.02c-0.34-0.01-0.69,0.02-1.03-0.01
		c-0.41-0.04-0.53,0.14-0.48,0.52c0.02,0.16,0,0.32,0,0.48C44.62,51.88,44.62,51.88,45.68,51.88z"/>
	<path d="M83.02,52.14c0-0.85,0.02-1.71-0.01-2.56c-0.01-0.37,0.11-0.48,0.47-0.47c1.04,0.02,2.08,0.01,3.12,0.01
		c0.25,0,0.44,0,0.44,0.35c0,0.36-0.21,0.34-0.45,0.34c-0.76,0-1.52,0.02-2.29-0.01c-0.37-0.01-0.46,0.12-0.47,0.47
		c-0.04,1.34-0.05,1.34,1.26,1.34c0.25,0,0.51,0,0.76,0c0.26,0,0.51-0.05,0.49,0.37c-0.01,0.37-0.24,0.32-0.47,0.32
		c-0.51,0-1.02,0.02-1.52-0.01c-0.38-0.02-0.51,0.08-0.52,0.49c-0.04,1.74-0.06,1.74,1.69,1.74c0.44,0,0.88,0.01,1.32,0
		c0.23,0,0.33,0.07,0.33,0.32c0,0.25-0.06,0.38-0.34,0.38c-1.15-0.01-2.31-0.01-3.46,0c-0.35,0-0.35-0.19-0.35-0.44
		C83.02,53.89,83.02,53.01,83.02,52.14z"/>
	<path d="M132.92,52.16c0-0.83,0.02-1.66-0.01-2.49c-0.01-0.4,0.06-0.58,0.52-0.56c0.99,0.04,1.98,0.01,2.98,0.01
		c0.23,0,0.52-0.11,0.53,0.32c0.01,0.48-0.32,0.35-0.57,0.36c-0.69,0.01-1.39,0.02-2.08,0c-0.4-0.02-0.56,0.07-0.56,0.52
		c0,1.29-0.03,1.29,1.24,1.29c0.32,0,0.65,0.01,0.97,0c0.26-0.01,0.3,0.13,0.3,0.35c0,0.22-0.06,0.35-0.31,0.34
		c-0.58-0.01-1.16,0.02-1.73-0.01c-0.37-0.02-0.46,0.12-0.47,0.47c-0.06,1.76-0.07,1.76,1.67,1.76c0.37,0,0.74,0.01,1.11,0
		c0.27-0.01,0.43,0.03,0.42,0.37c-0.01,0.3-0.17,0.32-0.4,0.32c-1.06,0-2.12-0.02-3.19,0.01c-0.4,0.01-0.45-0.17-0.44-0.5
		C132.93,53.86,132.92,53.01,132.92,52.16z"/>
	<path d="M114.18,55.21c-0.54-0.07-1.42,0.3-1.8-0.14c-0.32-0.38-0.11-1.23-0.11-1.87c-0.01-1.18,0.01-2.35-0.01-3.53
		c-0.01-0.4,0.07-0.57,0.53-0.56c0.97,0.04,1.94,0.01,2.91,0.01c0.23,0,0.45-0.03,0.46,0.33c0,0.35-0.18,0.36-0.44,0.36
		c-0.74-0.01-1.48,0.02-2.22-0.01c-0.41-0.02-0.56,0.08-0.56,0.53c0,1.29-0.02,1.29,1.25,1.29c0.32,0,0.65,0.01,0.97,0
		c0.26-0.01,0.29,0.14,0.3,0.35c0,0.22-0.06,0.34-0.31,0.34c-0.58-0.01-1.16,0.02-1.73-0.01c-0.37-0.02-0.45,0.13-0.47,0.48
		c-0.06,1.75-0.07,1.75,1.68,1.75c0.42,0,0.83,0.01,1.25,0c0.27-0.01,0.43,0.04,0.42,0.37c-0.01,0.31-0.18,0.32-0.4,0.32
		C115.35,55.2,114.82,55.21,114.18,55.21z"/>
	<path d="M52.52,52.16c0-0.83,0.03-1.66-0.01-2.49c-0.02-0.48,0.16-0.58,0.59-0.56c0.9,0.03,1.8,0,2.7,0.02
		c0.23,0,0.59-0.17,0.6,0.32c0.01,0.55-0.38,0.35-0.63,0.35c-0.69,0.02-1.39,0.02-2.08,0c-0.34-0.01-0.48,0.06-0.49,0.45
		c-0.05,1.36-0.06,1.36,1.31,1.36c0.3,0,0.6,0.01,0.9,0c0.25-0.01,0.3,0.13,0.3,0.34c0,0.22-0.05,0.35-0.3,0.34
		c-0.58-0.01-1.16,0.02-1.73-0.01c-0.36-0.02-0.46,0.11-0.47,0.47c-0.06,1.76-0.07,1.76,1.67,1.76c0.39,0,0.78,0,1.18,0
		c0.25,0,0.51-0.05,0.5,0.36c-0.01,0.37-0.24,0.32-0.46,0.33c-1.04,0-2.08-0.02-3.12,0.01c-0.39,0.01-0.45-0.16-0.45-0.49
		C52.53,53.87,52.52,53.01,52.52,52.16z"/>
	<path d="M60.7,52.15c0-0.83,0.02-1.66-0.01-2.49c-0.01-0.4,0.07-0.58,0.52-0.56c0.9,0.04,1.8,0.01,2.7,0.01
		c0.23,0,0.52-0.11,0.53,0.32c0.01,0.48-0.32,0.35-0.57,0.36c-0.67,0.01-1.34,0.02-2.01,0c-0.33-0.01-0.48,0.06-0.5,0.45
		c-0.06,1.51-0.07,1.5,1.44,1.51c0.28,0,0.55,0.01,0.83,0c0.24-0.01,0.38,0.05,0.38,0.34c0,0.28-0.11,0.36-0.37,0.35
		c-0.58-0.01-1.15,0.02-1.73-0.01c-0.41-0.02-0.58,0.08-0.55,0.53c0.04,0.57,0.02,1.15,0.01,1.73c0,0.23,0.1,0.52-0.33,0.53
		c-0.42,0.01-0.36-0.25-0.36-0.5C60.7,53.86,60.7,53.01,60.7,52.15z"/>
	<path d="M156.49,49.16c0.46-0.1,0.76-0.09,1,0.41c0.38,0.79,0.9,1.51,1.39,2.29c0.46-0.74,0.97-1.43,1.32-2.19
		c0.25-0.55,0.57-0.64,1.16-0.5c-0.43,0.7-0.81,1.41-1.27,2.06c-0.6,0.85-1,1.72-0.85,2.79c0.04,0.27-0.01,0.55,0.01,0.83
		c0.01,0.27-0.09,0.36-0.36,0.36c-0.3,0-0.35-0.15-0.33-0.39c0-0.05-0.01-0.09,0-0.14c0.29-1.57-0.47-2.8-1.28-4.03
		C156.98,50.19,156.63,49.74,156.49,49.16z"/>
	<path d="M141.1,52.14c0-0.85,0-1.71,0-2.56c0-0.22-0.05-0.46,0.32-0.47c0.41-0.01,0.37,0.24,0.37,0.49c0,1.45,0.02,2.91-0.01,4.36
		c-0.01,0.47,0.15,0.59,0.59,0.57c0.64-0.03,1.29-0.01,1.94-0.01c0.22,0,0.39,0.01,0.4,0.32c0.01,0.33-0.15,0.38-0.42,0.37
		c-0.92-0.01-1.85-0.02-2.77,0c-0.34,0.01-0.43-0.13-0.42-0.45C141.11,53.89,141.1,53.01,141.1,52.14z"/>
	<path d="M107.55,51.88c0,0.71-0.02,1.43,0.01,2.14c0.02,0.52-0.21,0.94-0.63,1.13c-0.48,0.21-1.04,0.33-1.58,0.05
		c-0.26-0.14-0.16-0.37-0.12-0.54c0.05-0.22,0.23-0.1,0.39-0.07c0.85,0.19,1.24-0.13,1.24-1.01c0-1.29-0.01-2.58,0.01-3.87
		c0-0.23-0.18-0.58,0.32-0.6c0.54-0.02,0.35,0.38,0.36,0.63C107.56,50.45,107.55,51.16,107.55,51.88z"/>
	<path d="M69.15,52.19c0,0.83,0,1.66,0,2.49c0,0.28,0.05,0.54-0.39,0.54c-0.4,0-0.44-0.18-0.44-0.5c0.01-1.7,0.01-3.41,0-5.11
		c0-0.32,0.03-0.51,0.43-0.51c0.44,0,0.4,0.26,0.4,0.54C69.15,50.49,69.15,51.34,69.15,52.19z"/>
</g>
</svg>
